<mxfile host="Electron" modified="2023-06-13T17:11:56.594Z" agent="Mozilla/5.0 (Windows NT 10.0; Win64; x64) AppleWebKit/537.36 (KHTML, like Gecko) draw.io/21.3.7 Chrome/112.0.5615.204 Electron/24.5.0 Safari/537.36" etag="524bizBA8oYNJAQ8hcEa" version="21.3.7" type="device">
  <diagram name="PÃ¡gina-1" id="bklBwkkbCOt0mEFsSix9">
    <mxGraphModel dx="1411" dy="1140" grid="1" gridSize="10" guides="1" tooltips="1" connect="1" arrows="1" fold="1" page="1" pageScale="1" pageWidth="1169" pageHeight="827" math="0" shadow="0">
      <root>
        <mxCell id="0" />
        <mxCell id="1" parent="0" />
        <mxCell id="A9VVwUmLwmRIazJzTsP5-1" value="&lt;b style=&quot;font-size: 27px;&quot;&gt;Working Directory&lt;/b&gt;" style="rounded=1;whiteSpace=wrap;html=1;fillColor=#008a00;fontColor=#ffffff;strokeColor=#005700;container=0;fontSize=27;" vertex="1" parent="1">
          <mxGeometry x="60" y="50" width="208" height="129.0909090909091" as="geometry" />
        </mxCell>
        <mxCell id="A9VVwUmLwmRIazJzTsP5-2" value="&lt;b style=&quot;font-size: 27px;&quot;&gt;Staging Area&lt;/b&gt;" style="rounded=1;whiteSpace=wrap;html=1;fillColor=#f0a30a;fontColor=#000000;strokeColor=#BD7000;container=0;fontSize=27;" vertex="1" parent="1">
          <mxGeometry x="510.66666666666663" y="50" width="208" height="129.0909090909091" as="geometry" />
        </mxCell>
        <mxCell id="A9VVwUmLwmRIazJzTsP5-3" value="&lt;b style=&quot;font-size: 27px;&quot;&gt;git directory (repository)&lt;/b&gt;" style="rounded=1;whiteSpace=wrap;html=1;fillColor=#1ba1e2;fontColor=#ffffff;strokeColor=#006EAF;container=0;fontSize=27;" vertex="1" parent="1">
          <mxGeometry x="892" y="50" width="208" height="129.0909090909091" as="geometry" />
        </mxCell>
        <mxCell id="A9VVwUmLwmRIazJzTsP5-5" value="" style="endArrow=none;html=1;rounded=0;entryX=0.5;entryY=1;entryDx=0;entryDy=0;jumpSize=18;endSize=12;strokeWidth=12;fillColor=#008a00;strokeColor=#005700;" edge="1" parent="1" target="A9VVwUmLwmRIazJzTsP5-1">
          <mxGeometry width="50" height="50" relative="1" as="geometry">
            <mxPoint x="164" y="738.4848484848485" as="sourcePoint" />
            <mxPoint x="146.66666666666666" y="308.1818181818182" as="targetPoint" />
          </mxGeometry>
        </mxCell>
        <mxCell id="A9VVwUmLwmRIazJzTsP5-6" value="" style="endArrow=none;html=1;rounded=0;entryX=0.5;entryY=1;entryDx=0;entryDy=0;jumpSize=18;endSize=12;strokeWidth=12;fillColor=#f0a30a;strokeColor=#BD7000;" edge="1" parent="1">
          <mxGeometry width="50" height="50" relative="1" as="geometry">
            <mxPoint x="613.8000000000001" y="738.4848484848485" as="sourcePoint" />
            <mxPoint x="613.8000000000001" y="179.0909090909091" as="targetPoint" />
          </mxGeometry>
        </mxCell>
        <mxCell id="A9VVwUmLwmRIazJzTsP5-7" value="" style="endArrow=none;html=1;rounded=0;entryX=0.5;entryY=1;entryDx=0;entryDy=0;jumpSize=18;endSize=12;strokeWidth=12;fillColor=#1ba1e2;strokeColor=#006EAF;" edge="1" parent="1">
          <mxGeometry width="50" height="50" relative="1" as="geometry">
            <mxPoint x="995.1333333333333" y="738.4848484848485" as="sourcePoint" />
            <mxPoint x="995.1333333333333" y="179.0909090909091" as="targetPoint" />
          </mxGeometry>
        </mxCell>
        <mxCell id="A9VVwUmLwmRIazJzTsP5-12" value="" style="endArrow=classic;html=1;rounded=0;strokeWidth=12;fillColor=#1ba1e2;strokeColor=#006EAF;" edge="1" parent="1">
          <mxGeometry width="50" height="50" relative="1" as="geometry">
            <mxPoint x="620" y="717" as="sourcePoint" />
            <mxPoint x="990" y="717" as="targetPoint" />
          </mxGeometry>
        </mxCell>
        <mxCell id="A9VVwUmLwmRIazJzTsP5-13" value="" style="endArrow=classic;html=1;rounded=0;strokeWidth=12;fillColor=#f0a30a;strokeColor=#BD7000;" edge="1" parent="1">
          <mxGeometry width="50" height="50" relative="1" as="geometry">
            <mxPoint x="170" y="520" as="sourcePoint" />
            <mxPoint x="610" y="520" as="targetPoint" />
          </mxGeometry>
        </mxCell>
        <mxCell id="A9VVwUmLwmRIazJzTsP5-16" value="" style="endArrow=classic;html=1;rounded=0;strokeWidth=12;fillColor=#008a00;strokeColor=#005700;" edge="1" parent="1">
          <mxGeometry width="50" height="50" relative="1" as="geometry">
            <mxPoint x="990" y="330" as="sourcePoint" />
            <mxPoint x="170" y="330" as="targetPoint" />
            <Array as="points">
              <mxPoint x="590" y="330" />
            </Array>
          </mxGeometry>
        </mxCell>
        <mxCell id="A9VVwUmLwmRIazJzTsP5-18" value="commit" style="rounded=1;whiteSpace=wrap;html=1;fillColor=#1ba1e2;fontColor=#ffffff;strokeColor=#006EAF;container=0;fontSize=27;" vertex="1" parent="1">
          <mxGeometry x="727.3333333333333" y="673.9393939393939" width="138.66666666666666" height="86.06060606060606" as="geometry" />
        </mxCell>
        <mxCell id="A9VVwUmLwmRIazJzTsP5-22" value="checkout the project&amp;nbsp;" style="rounded=1;whiteSpace=wrap;html=1;fillColor=#008a00;fontColor=#ffffff;strokeColor=#005700;container=0;fontSize=27;" vertex="1" parent="1">
          <mxGeometry x="265.3333333333333" y="286.66666666666663" width="242.66666666666669" height="86.06060606060606" as="geometry" />
        </mxCell>
        <mxCell id="A9VVwUmLwmRIazJzTsP5-17" value="stage files" style="rounded=1;whiteSpace=wrap;html=1;fillColor=#f0a30a;fontColor=#000000;strokeColor=#BD7000;container=0;fontSize=27;" vertex="1" parent="1">
          <mxGeometry x="310" y="480" width="173.33" height="86.06" as="geometry" />
        </mxCell>
      </root>
    </mxGraphModel>
  </diagram>
</mxfile>
